<?xml version="1.0" encoding="UTF-8"?>
<svg class="sheet" width="404mm" height="290mm" id="sh" viewBox="-14 -6 404 290" xmlns="http://www.w3.org/2000/svg" role="img" aria-label="A3 թերթի գծագիրը"><rect x="-14" y="-6" width="404" height="290" class="paper"/><style>@import url('https://fonts.googleapis.com/css2?family=JetBrains+Mono:wght@400..600&family=Noto+Sans+Armenian:wdth,wght@62.5..100,400..700&family=STIX+Two+Text:ital,wght@0,400..700;1,400..700&display=swap');
.sheet{display:block;font-family:"STIX Two Text","Noto Sans Armenian","Times New Roman",serif}
.sheet .paper{fill:#FFFDF8}
.sheet .g1{stroke:#F6DDD0;stroke-width:.07;fill:none}
.sheet .g5{stroke:#F0C4AE;stroke-width:.1;fill:none}
.sheet .g10{stroke:#E6A283;stroke-width:.16;fill:none}
.sheet .g50{stroke:#D97A52;stroke-width:.3;fill:none}
.sheet .ax{font-size:2.2px;fill:#C0643E;font-family:"JetBrains Mono",ui-monospace,monospace}
.sheet .ax5{font-weight:700;fill:#A34E2C}
.sheet line,.sheet path,.sheet circle.con{fill:none}
.sheet .axis{stroke:#46505A;stroke-width:.18;stroke-dasharray:6 1.2 1 1.2}
.sheet .con{stroke:#6E7A80;stroke-width:.2}
.sheet .con2{stroke:#8A959A;stroke-width:.18;stroke-dasharray:1.6 1}
.sheet .dd{stroke:#46505A;stroke-width:.2;stroke-dasharray:5 1 1 1}
.sheet .mark{stroke:#3B4448;stroke-width:.22}
.sheet .ln{stroke:#3B4448;stroke-width:.24}
.sheet .wk{stroke:#111518;stroke-width:.75;stroke-linecap:round}
.sheet .tri{fill:rgba(17,21,24,.06);stroke:none}
.sheet .thick{stroke:#1D2326;stroke-width:.45}
.sheet .sup{fill:#FFFDF8;stroke:#1D2326;stroke-width:.4}
.sheet .hatch{stroke:#1D2326;stroke-width:.2}
.sheet .slider{fill:#FFFDF8;stroke:#111518;stroke-width:.6}
.sheet .ext{stroke:#46505A;stroke-width:.16}
.sheet .dim{stroke:#46505A;stroke-width:.18}
.sheet .proj{stroke:#6E7A80;stroke-width:.16;stroke-dasharray:1.2 .8}
.sheet .curve{stroke:#1D2326;stroke-width:.55}
.sheet .jt{fill:#1D2326;stroke:none}
.sheet .jt.big{fill:#FFFDF8;stroke:#111518;stroke-width:.4}
.sheet .jt.ext{fill:#FFFDF8;stroke:#1D2326;stroke-width:.3}
.sheet .jt.s2{fill:#1D2326}
.sheet .vec{stroke:#1F54A3;stroke-width:.5}
.sheet .vecr{stroke:#1F54A3;stroke-width:.3}
.sheet .vecs{stroke:#1F54A3;stroke-width:.22;stroke-dasharray:1.4 .8}
.sheet .vtri{stroke:#1F54A3;stroke-width:.2;stroke-dasharray:.8 .8}
.sheet .vp .jt{fill:#1F54A3}
.sheet .acc{stroke:#1E6B52;stroke-width:.5}
.sheet .accr{stroke:#1E6B52;stroke-width:.3}
.sheet .accs{stroke:#1E6B52;stroke-width:.22;stroke-dasharray:1.4 .8}
.sheet .atri{stroke:#1E6B52;stroke-width:.2;stroke-dasharray:.8 .8}
.sheet .ajt{fill:#1E6B52}
.sheet .mk-k{fill:#1D2326}.sheet .mk-v{fill:#1F54A3}.sheet .mk-a{fill:#1E6B52}
.sheet .lbl{font-size:3.1px;fill:#15191B}
.sheet .lbl.big{font-size:3.8px;font-style:italic}
.sheet .lbl.num{font-size:2.5px;fill:#39434A;font-family:"JetBrains Mono",ui-monospace,monospace}
.sheet .lbl.sm{font-size:2.6px}
.sheet .lbl.xs{font-size:2.1px;fill:#4A555B}
.sheet .lbl.ttl{font-size:3.4px;font-weight:600}
.sheet .lbl.ttl2{font-size:3.1px;font-weight:600}
.sheet .lbl.cap{font-size:3.2px;font-weight:600}
.sheet .sep{stroke:#9AA3A8;stroke-width:.2;stroke-dasharray:3 1.5}
.sheet .lbl.vl{fill:#1F54A3}
.sheet .lbl.al{fill:#1E6B52}
.sheet .lbl.dir{font-size:1.9px;fill:#56626A}
.sheet tspan.sub{font-size:72%}
.sheet .tbox{fill:#FFFDF8;stroke:#1D2326;stroke-width:.45}
.sheet .tbl{stroke:#1D2326;stroke-width:.3}
</style><defs><marker id="sh-ar-k" viewBox="0 0 10 10" refX="10" refY="5" markerWidth="2.6" markerHeight="2.6" markerUnits="userSpaceOnUse" orient="auto"><path d="M0 1.2L10 5L0 8.8z" class="mk-k"/></marker><marker id="sh-ar-v" viewBox="0 0 10 10" refX="10" refY="5" markerWidth="2.8" markerHeight="2.8" markerUnits="userSpaceOnUse" orient="auto"><path d="M0 1.2L10 5L0 8.8z" class="mk-v"/></marker><marker id="sh-ar-a" viewBox="0 0 10 10" refX="10" refY="5" markerWidth="2.8" markerHeight="2.8" markerUnits="userSpaceOnUse" orient="auto"><path d="M0 1.2L10 5L0 8.8z" class="mk-a"/></marker></defs><g data-layer="grid"><path d="M1 0V270M2 0V270M3 0V270M4 0V270M6 0V270M7 0V270M8 0V270M9 0V270M11 0V270M12 0V270M13 0V270M14 0V270M16 0V270M17 0V270M18 0V270M19 0V270M21 0V270M22 0V270M23 0V270M24 0V270M26 0V270M27 0V270M28 0V270M29 0V270M31 0V270M32 0V270M33 0V270M34 0V270M36 0V270M37 0V270M38 0V270M39 0V270M41 0V270M42 0V270M43 0V270M44 0V270M46 0V270M47 0V270M48 0V270M49 0V270M51 0V270M52 0V270M53 0V270M54 0V270M56 0V270M57 0V270M58 0V270M59 0V270M61 0V270M62 0V270M63 0V270M64 0V270M66 0V270M67 0V270M68 0V270M69 0V270M71 0V270M72 0V270M73 0V270M74 0V270M76 0V270M77 0V270M78 0V270M79 0V270M81 0V270M82 0V270M83 0V270M84 0V270M86 0V270M87 0V270M88 0V270M89 0V270M91 0V270M92 0V270M93 0V270M94 0V270M96 0V270M97 0V270M98 0V270M99 0V270M101 0V270M102 0V270M103 0V270M104 0V270M106 0V270M107 0V270M108 0V270M109 0V270M111 0V270M112 0V270M113 0V270M114 0V270M116 0V270M117 0V270M118 0V270M119 0V270M121 0V270M122 0V270M123 0V270M124 0V270M126 0V270M127 0V270M128 0V270M129 0V270M131 0V270M132 0V270M133 0V270M134 0V270M136 0V270M137 0V270M138 0V270M139 0V270M141 0V270M142 0V270M143 0V270M144 0V270M146 0V270M147 0V270M148 0V270M149 0V270M151 0V270M152 0V270M153 0V270M154 0V270M156 0V270M157 0V270M158 0V270M159 0V270M161 0V270M162 0V270M163 0V270M164 0V270M166 0V270M167 0V270M168 0V270M169 0V270M171 0V270M172 0V270M173 0V270M174 0V270M176 0V270M177 0V270M178 0V270M179 0V270M181 0V270M182 0V270M183 0V270M184 0V270M186 0V270M187 0V270M188 0V270M189 0V270M191 0V270M192 0V270M193 0V270M194 0V270M196 0V270M197 0V270M198 0V270M199 0V270M201 0V270M202 0V270M203 0V270M204 0V270M206 0V270M207 0V270M208 0V270M209 0V270M211 0V270M212 0V270M213 0V270M214 0V270M216 0V270M217 0V270M218 0V270M219 0V270M221 0V270M222 0V270M223 0V270M224 0V270M226 0V270M227 0V270M228 0V270M229 0V270M231 0V270M232 0V270M233 0V270M234 0V270M236 0V270M237 0V270M238 0V270M239 0V270M241 0V270M242 0V270M243 0V270M244 0V270M246 0V270M247 0V270M248 0V270M249 0V270M251 0V270M252 0V270M253 0V270M254 0V270M256 0V270M257 0V270M258 0V270M259 0V270M261 0V270M262 0V270M263 0V270M264 0V270M266 0V270M267 0V270M268 0V270M269 0V270M271 0V270M272 0V270M273 0V270M274 0V270M276 0V270M277 0V270M278 0V270M279 0V270M281 0V270M282 0V270M283 0V270M284 0V270M286 0V270M287 0V270M288 0V270M289 0V270M291 0V270M292 0V270M293 0V270M294 0V270M296 0V270M297 0V270M298 0V270M299 0V270M301 0V270M302 0V270M303 0V270M304 0V270M306 0V270M307 0V270M308 0V270M309 0V270M311 0V270M312 0V270M313 0V270M314 0V270M316 0V270M317 0V270M318 0V270M319 0V270M321 0V270M322 0V270M323 0V270M324 0V270M326 0V270M327 0V270M328 0V270M329 0V270M331 0V270M332 0V270M333 0V270M334 0V270M336 0V270M337 0V270M338 0V270M339 0V270M341 0V270M342 0V270M343 0V270M344 0V270M346 0V270M347 0V270M348 0V270M349 0V270M351 0V270M352 0V270M353 0V270M354 0V270M356 0V270M357 0V270M358 0V270M359 0V270M361 0V270M362 0V270M363 0V270M364 0V270M366 0V270M367 0V270M368 0V270M369 0V270M371 0V270M372 0V270M373 0V270M374 0V270M376 0V270M377 0V270M378 0V270M379 0V270M0 269H380M0 268H380M0 267H380M0 266H380M0 264H380M0 263H380M0 262H380M0 261H380M0 259H380M0 258H380M0 257H380M0 256H380M0 254H380M0 253H380M0 252H380M0 251H380M0 249H380M0 248H380M0 247H380M0 246H380M0 244H380M0 243H380M0 242H380M0 241H380M0 239H380M0 238H380M0 237H380M0 236H380M0 234H380M0 233H380M0 232H380M0 231H380M0 229H380M0 228H380M0 227H380M0 226H380M0 224H380M0 223H380M0 222H380M0 221H380M0 219H380M0 218H380M0 217H380M0 216H380M0 214H380M0 213H380M0 212H380M0 211H380M0 209H380M0 208H380M0 207H380M0 206H380M0 204H380M0 203H380M0 202H380M0 201H380M0 199H380M0 198H380M0 197H380M0 196H380M0 194H380M0 193H380M0 192H380M0 191H380M0 189H380M0 188H380M0 187H380M0 186H380M0 184H380M0 183H380M0 182H380M0 181H380M0 179H380M0 178H380M0 177H380M0 176H380M0 174H380M0 173H380M0 172H380M0 171H380M0 169H380M0 168H380M0 167H380M0 166H380M0 164H380M0 163H380M0 162H380M0 161H380M0 159H380M0 158H380M0 157H380M0 156H380M0 154H380M0 153H380M0 152H380M0 151H380M0 149H380M0 148H380M0 147H380M0 146H380M0 144H380M0 143H380M0 142H380M0 141H380M0 139H380M0 138H380M0 137H380M0 136H380M0 134H380M0 133H380M0 132H380M0 131H380M0 129H380M0 128H380M0 127H380M0 126H380M0 124H380M0 123H380M0 122H380M0 121H380M0 119H380M0 118H380M0 117H380M0 116H380M0 114H380M0 113H380M0 112H380M0 111H380M0 109H380M0 108H380M0 107H380M0 106H380M0 104H380M0 103H380M0 102H380M0 101H380M0 99H380M0 98H380M0 97H380M0 96H380M0 94H380M0 93H380M0 92H380M0 91H380M0 89H380M0 88H380M0 87H380M0 86H380M0 84H380M0 83H380M0 82H380M0 81H380M0 79H380M0 78H380M0 77H380M0 76H380M0 74H380M0 73H380M0 72H380M0 71H380M0 69H380M0 68H380M0 67H380M0 66H380M0 64H380M0 63H380M0 62H380M0 61H380M0 59H380M0 58H380M0 57H380M0 56H380M0 54H380M0 53H380M0 52H380M0 51H380M0 49H380M0 48H380M0 47H380M0 46H380M0 44H380M0 43H380M0 42H380M0 41H380M0 39H380M0 38H380M0 37H380M0 36H380M0 34H380M0 33H380M0 32H380M0 31H380M0 29H380M0 28H380M0 27H380M0 26H380M0 24H380M0 23H380M0 22H380M0 21H380M0 19H380M0 18H380M0 17H380M0 16H380M0 14H380M0 13H380M0 12H380M0 11H380M0 9H380M0 8H380M0 7H380M0 6H380M0 4H380M0 3H380M0 2H380M0 1H380" class="g1"/><path d="M5 0V270M10 0V270M15 0V270M20 0V270M30 0V270M35 0V270M40 0V270M45 0V270M55 0V270M60 0V270M65 0V270M70 0V270M80 0V270M85 0V270M90 0V270M95 0V270M105 0V270M110 0V270M115 0V270M120 0V270M130 0V270M135 0V270M140 0V270M145 0V270M155 0V270M160 0V270M165 0V270M170 0V270M180 0V270M185 0V270M190 0V270M195 0V270M205 0V270M210 0V270M215 0V270M220 0V270M230 0V270M235 0V270M240 0V270M245 0V270M255 0V270M260 0V270M265 0V270M270 0V270M280 0V270M285 0V270M290 0V270M295 0V270M305 0V270M310 0V270M315 0V270M320 0V270M330 0V270M335 0V270M340 0V270M345 0V270M355 0V270M360 0V270M365 0V270M370 0V270M380 0V270M0 265H380M0 260H380M0 255H380M0 250H380M0 240H380M0 235H380M0 230H380M0 225H380M0 215H380M0 210H380M0 205H380M0 200H380M0 190H380M0 185H380M0 180H380M0 175H380M0 165H380M0 160H380M0 155H380M0 150H380M0 140H380M0 135H380M0 130H380M0 125H380M0 115H380M0 110H380M0 105H380M0 100H380M0 90H380M0 85H380M0 80H380M0 75H380M0 65H380M0 60H380M0 55H380M0 50H380M0 40H380M0 35H380M0 30H380M0 25H380M0 15H380M0 10H380M0 5H380M0 0H380" class="g5"/><path d="M10 0V270M20 0V270M30 0V270M40 0V270M60 0V270M70 0V270M80 0V270M90 0V270M110 0V270M120 0V270M130 0V270M140 0V270M160 0V270M170 0V270M180 0V270M190 0V270M210 0V270M220 0V270M230 0V270M240 0V270M260 0V270M270 0V270M280 0V270M290 0V270M310 0V270M320 0V270M330 0V270M340 0V270M360 0V270M370 0V270M380 0V270M0 260H380M0 250H380M0 240H380M0 230H380M0 210H380M0 200H380M0 190H380M0 180H380M0 160H380M0 150H380M0 140H380M0 130H380M0 110H380M0 100H380M0 90H380M0 80H380M0 60H380M0 50H380M0 40H380M0 30H380M0 10H380M0 0H380" class="g10"/><path d="M0 0V270M50 0V270M100 0V270M150 0V270M200 0V270M250 0V270M300 0V270M350 0V270M0 270H380M0 220H380M0 170H380M0 120H380M0 70H380M0 20H380" class="g50"/><text x="0" y="273.6" class="ax ax5" text-anchor="middle">0</text><text x="10" y="273.6" class="ax" text-anchor="middle">10</text><text x="20" y="273.6" class="ax" text-anchor="middle">20</text><text x="30" y="273.6" class="ax" text-anchor="middle">30</text><text x="40" y="273.6" class="ax" text-anchor="middle">40</text><text x="50" y="273.6" class="ax ax5" text-anchor="middle">50</text><text x="60" y="273.6" class="ax" text-anchor="middle">60</text><text x="70" y="273.6" class="ax" text-anchor="middle">70</text><text x="80" y="273.6" class="ax" text-anchor="middle">80</text><text x="90" y="273.6" class="ax" text-anchor="middle">90</text><text x="100" y="273.6" class="ax ax5" text-anchor="middle">100</text><text x="110" y="273.6" class="ax" text-anchor="middle">110</text><text x="120" y="273.6" class="ax" text-anchor="middle">120</text><text x="130" y="273.6" class="ax" text-anchor="middle">130</text><text x="140" y="273.6" class="ax" text-anchor="middle">140</text><text x="150" y="273.6" class="ax ax5" text-anchor="middle">150</text><text x="160" y="273.6" class="ax" text-anchor="middle">160</text><text x="170" y="273.6" class="ax" text-anchor="middle">170</text><text x="180" y="273.6" class="ax" text-anchor="middle">180</text><text x="190" y="273.6" class="ax" text-anchor="middle">190</text><text x="200" y="273.6" class="ax ax5" text-anchor="middle">200</text><text x="210" y="273.6" class="ax" text-anchor="middle">210</text><text x="220" y="273.6" class="ax" text-anchor="middle">220</text><text x="230" y="273.6" class="ax" text-anchor="middle">230</text><text x="240" y="273.6" class="ax" text-anchor="middle">240</text><text x="250" y="273.6" class="ax ax5" text-anchor="middle">250</text><text x="260" y="273.6" class="ax" text-anchor="middle">260</text><text x="270" y="273.6" class="ax" text-anchor="middle">270</text><text x="280" y="273.6" class="ax" text-anchor="middle">280</text><text x="290" y="273.6" class="ax" text-anchor="middle">290</text><text x="300" y="273.6" class="ax ax5" text-anchor="middle">300</text><text x="310" y="273.6" class="ax" text-anchor="middle">310</text><text x="320" y="273.6" class="ax" text-anchor="middle">320</text><text x="330" y="273.6" class="ax" text-anchor="middle">330</text><text x="340" y="273.6" class="ax" text-anchor="middle">340</text><text x="350" y="273.6" class="ax ax5" text-anchor="middle">350</text><text x="360" y="273.6" class="ax" text-anchor="middle">360</text><text x="370" y="273.6" class="ax" text-anchor="middle">370</text><text x="380" y="273.6" class="ax" text-anchor="middle">380</text><text x="-2.2" y="270" class="ax ax5" text-anchor="end" dominant-baseline="central">0</text><text x="-2.2" y="260" class="ax" text-anchor="end" dominant-baseline="central">10</text><text x="-2.2" y="250" class="ax" text-anchor="end" dominant-baseline="central">20</text><text x="-2.2" y="240" class="ax" text-anchor="end" dominant-baseline="central">30</text><text x="-2.2" y="230" class="ax" text-anchor="end" dominant-baseline="central">40</text><text x="-2.2" y="220" class="ax ax5" text-anchor="end" dominant-baseline="central">50</text><text x="-2.2" y="210" class="ax" text-anchor="end" dominant-baseline="central">60</text><text x="-2.2" y="200" class="ax" text-anchor="end" dominant-baseline="central">70</text><text x="-2.2" y="190" class="ax" text-anchor="end" dominant-baseline="central">80</text><text x="-2.2" y="180" class="ax" text-anchor="end" dominant-baseline="central">90</text><text x="-2.2" y="170" class="ax ax5" text-anchor="end" dominant-baseline="central">100</text><text x="-2.2" y="160" class="ax" text-anchor="end" dominant-baseline="central">110</text><text x="-2.2" y="150" class="ax" text-anchor="end" dominant-baseline="central">120</text><text x="-2.2" y="140" class="ax" text-anchor="end" dominant-baseline="central">130</text><text x="-2.2" y="130" class="ax" text-anchor="end" dominant-baseline="central">140</text><text x="-2.2" y="120" class="ax ax5" text-anchor="end" dominant-baseline="central">150</text><text x="-2.2" y="110" class="ax" text-anchor="end" dominant-baseline="central">160</text><text x="-2.2" y="100" class="ax" text-anchor="end" dominant-baseline="central">170</text><text x="-2.2" y="90" class="ax" text-anchor="end" dominant-baseline="central">180</text><text x="-2.2" y="80" class="ax" text-anchor="end" dominant-baseline="central">190</text><text x="-2.2" y="70" class="ax ax5" text-anchor="end" dominant-baseline="central">200</text><text x="-2.2" y="60" class="ax" text-anchor="end" dominant-baseline="central">210</text><text x="-2.2" y="50" class="ax" text-anchor="end" dominant-baseline="central">220</text><text x="-2.2" y="40" class="ax" text-anchor="end" dominant-baseline="central">230</text><text x="-2.2" y="30" class="ax" text-anchor="end" dominant-baseline="central">240</text><text x="-2.2" y="20" class="ax ax5" text-anchor="end" dominant-baseline="central">250</text><text x="-2.2" y="10" class="ax" text-anchor="end" dominant-baseline="central">260</text><text x="-2.2" y="0" class="ax" text-anchor="end" dominant-baseline="central">270</text><text x="-9.5" y="273.6" class="ax ax5" text-anchor="middle">O</text></g><g data-layer="constr"><line x1="90" y1="14" x2="90" y2="265" class="axis"/><path d="M15.81 108.32 L17.2 109.39 L18.6 110.45 L20.02 111.48 L21.45 112.49 L22.89 113.48 L24.35 114.45 L25.83 115.4 L27.32 116.33 L28.82 117.23 L30.34 118.12 L31.86 118.98 L33.4 119.81 L34.96 120.63 L36.52 121.42 L38.09 122.19 L39.68 122.94 L41.28 123.66 L42.89 124.36 L44.5 125.04 L46.13 125.69 L47.77 126.32 L49.41 126.93 L51.07 127.51 L52.73 128.07 L54.4 128.6 L56.08 129.11 L57.77 129.59 L59.46 130.05 L61.16 130.48 L62.86 130.89 L64.57 131.28 L66.29 131.63 L68.01 131.97 L69.74 132.28 L71.47 132.56 L73.2 132.82 L74.94 133.05 L76.68 133.26 L78.43 133.44 L80.17 133.6 L81.92 133.73 L83.67 133.83 L85.42 133.91 L87.17 133.97 L88.93 134 L90.68 134 L92.44 133.98 L94.19 133.93" class="con"/><path d="M112.11 119.71 L113.65 119.38 L115.19 119.02 L116.72 118.64 L118.25 118.24 L119.77 117.82 L121.28 117.37 L122.79 116.9 L124.29 116.41 L125.78 115.9 L127.26 115.37 L128.74 114.81 L130.21 114.24 L131.67 113.64 L133.12 113.02 L134.57 112.38 L136 111.71 L137.42 111.03 L138.83 110.33 L140.24 109.61 L141.63 108.86 L143.01 108.1 L144.38 107.31 L145.74 106.51 L147.08 105.68 L148.41 104.84 L149.74 103.98 L151.04 103.09 L152.34 102.19 L153.62 101.27 L154.89 100.33 L156.14 99.38 L157.38 98.4 L158.61 97.41 L159.82 96.39 L161.02 95.37 L162.2 94.32 L163.37 93.26 L164.52 92.17 L165.65 91.08 L166.77 89.96 L167.87 88.83 L168.96 87.69 L170.02 86.53 L171.08 85.35 L172.11 84.16 L173.13 82.95 L174.12 81.73 L175.11 80.49" class="con"/><line x1="290" y1="99.71" x2="121.24" y2="117.38" class="dd"/><line x1="168.99" y1="87.66" x2="313.92" y2="102.1" class="dd"/><line x1="90" y1="14" x2="24.31" y2="114.43" class="con2"/><line x1="90" y1="14" x2="83.72" y2="133.84" class="con2"/><line x1="90" y1="14" x2="121.24" y2="117.38" class="con2"/><line x1="90" y1="14" x2="168.99" y2="87.66" class="con2"/><line x1="24.31" y1="114.43" x2="90" y2="207.95" class="con2"/><line x1="83.72" y1="133.84" x2="90" y2="247.95" class="con2"/><path d="M78.04 247.98 L78.54 248 L79.03 248.03 L79.53 248.04 L80.03 248.06 L80.53 248.08 L81.03 248.09 L81.53 248.1 L82.02 248.11 L82.52 248.11 L83.02 248.12 L83.52 248.12 L84.02 248.12 L84.52 248.12 L85.02 248.11 L85.52 248.11 L86.01 248.1 L86.51 248.09 L87.01 248.07 L87.51 248.06 L88.01 248.04 L88.51 248.02 L89 248 L89.5 247.97 L90 247.95 L90.5 247.92 L91 247.89 L91.49 247.86 L91.99 247.82 L92.49 247.78 L92.98 247.75 L93.48 247.7 L93.98 247.66 L94.48 247.61 L94.97 247.57 L95.47 247.52 L95.96 247.46 L96.46 247.41 L96.95 247.35 L97.45 247.29 L97.94 247.23 L98.44 247.17 L98.93 247.1 L99.43 247.04 L99.92 246.97 L100.42 246.9 L100.91 246.82 L101.4 246.75 L101.89 246.67" class="con"/><path d="M34.45 108.07 L34.01 108.32 L33.58 108.56 L33.15 108.81 L32.71 109.06 L32.28 109.31 L31.85 109.56 L31.43 109.81 L31 110.07 L30.57 110.33 L30.15 110.59 L29.72 110.85 L29.3 111.12 L28.88 111.38 L28.46 111.65 L28.04 111.92 L27.62 112.19 L27.2 112.46 L26.78 112.74 L26.37 113.01 L25.96 113.29 L25.54 113.57 L25.13 113.86 L24.72 114.14 L24.31 114.43 L23.91 114.71 L23.5 115 L23.1 115.29 L22.69 115.59 L22.29 115.88 L21.89 116.18 L21.49 116.48 L21.09 116.78 L20.69 117.08 L20.3 117.38 L19.9 117.68 L19.51 117.99 L19.12 118.3 L18.73 118.61 L18.34 118.92 L17.95 119.24 L17.56 119.55 L17.18 119.87 L16.79 120.19 L16.41 120.51 L16.03 120.83 L15.65 121.15 L15.27 121.48 L14.9 121.8" class="con"/><line x1="90" y1="14" x2="83.14" y2="144.82" class="con2"/><path d="M90 141 L89.17 141 L88.34 140.99 L87.51 140.98 L86.68 140.96 L85.84 140.93 L85.01 140.9 L84.18 140.87 L83.35 140.83" class="mark"/><text x="80.5" y="145.5" class="lbl sm" text-anchor="end" dominant-baseline="central">β=3°</text><path d="M63.73 54.17 L64.17 54.46 L64.61 54.74 L65.06 55.01 L65.51 55.28 L65.97 55.55 L66.43 55.81 L66.89 56.07 L67.35 56.32 L67.82 56.57 L68.28 56.81 L68.76 57.04 L69.23 57.27 L69.71 57.5 L70.18 57.72 L70.66 57.93 L71.15 58.14 L71.63 58.35 L72.12 58.55 L72.61 58.74 L73.1 58.93 L73.6 59.11 L74.09 59.29 L74.59 59.46 L75.09 59.63 L75.59 59.79 L76.1 59.94 L76.6 60.09 L77.11 60.24 L77.62 60.38 L78.13 60.51 L78.64 60.64 L79.15 60.76 L79.67 60.87 L80.18 60.98 L80.7 61.09 L81.21 61.19 L81.73 61.28 L82.25 61.37 L82.77 61.45 L83.29 61.53 L83.82 61.6 L84.34 61.66 L84.86 61.72 L85.39 61.78 L85.91 61.83 L86.44 61.87 L86.96 61.9 L87.49 61.93" class="mark"/><text x="57.36" y="57.02" class="lbl sm" text-anchor="end" dominant-baseline="central">ψ=30,2°</text><circle id="sh-pt-E0" cx="24.31" cy="114.43" r="0.6" class="pt jt ext" data-k="E₀" data-x="24,3" data-y="155,6"/><circle id="sh-pt-E0p" cx="83.72" cy="133.84" r="0.6" class="pt jt ext" data-k="E₀′" data-x="83,7" data-y="136,2"/><circle id="sh-pt-F0" cx="90" cy="207.95" r="0.6" class="pt jt ext" data-k="F₀" data-x="90,0" data-y="62,1"/><circle id="sh-pt-F0p" cx="90" cy="247.95" r="0.6" class="pt jt ext" data-k="F₀′" data-x="90,0" data-y="22,1"/><circle id="sh-pt-C0" cx="121.24" cy="117.38" r="0.6" class="pt jt ext" data-k="C₀" data-x="121,2" data-y="152,6"/><circle id="sh-pt-C0p" cx="168.99" cy="87.66" r="0.6" class="pt jt ext" data-k="C₀′" data-x="169,0" data-y="182,3"/><circle id="sh-pt-B0" cx="266.09" cy="102.22" r="0.6" class="pt jt ext" data-k="B₀" data-x="266,1" data-y="167,8"/><circle id="sh-pt-B0p" cx="313.92" cy="102.1" r="0.6" class="pt jt ext" data-k="B₀′" data-x="313,9" data-y="167,9"/><circle cx="290" cy="99.71" r="24.04" class="con"/></g><g data-layer="pos"><g class="posg" data-pos="0"><line x1="266.09" y1="102.22" x2="121.24" y2="117.38" class="ln"/><line x1="90" y1="14" x2="121.24" y2="117.38" class="ln"/><line x1="90" y1="14" x2="24.31" y2="114.43" class="ln"/><line x1="24.31" y1="114.43" x2="90" y2="207.95" class="ln"/><line x1="290" y1="99.71" x2="266.09" y2="102.22" class="ln"/><circle id="sh-pt-B0" cx="266.09" cy="102.22" r="0.5" class="pt jt" data-k="B0" data-x="266,1" data-y="167,8"/><circle id="sh-pt-C0" cx="121.24" cy="117.38" r="0.5" class="pt jt" data-k="C0" data-x="121,2" data-y="152,6"/><circle id="sh-pt-E0" cx="24.31" cy="114.43" r="0.5" class="pt jt" data-k="E0" data-x="24,3" data-y="155,6"/><circle id="sh-pt-F0" cx="90" cy="207.95" r="0.5" class="pt jt" data-k="F0" data-x="90,0" data-y="62,1"/></g><g class="posg" data-pos="1"><line x1="271.33" y1="84.58" x2="128.84" y2="114.77" class="ln"/><line x1="90" y1="14" x2="128.84" y2="114.77" class="ln"/><line x1="90" y1="14" x2="31.97" y2="119.03" class="ln"/><line x1="31.97" y1="119.03" x2="90" y2="217.49" class="ln"/><line x1="290" y1="99.71" x2="271.33" y2="84.58" class="ln"/><circle id="sh-pt-B1" cx="271.33" cy="84.58" r="0.5" class="pt jt" data-k="B1" data-x="271,3" data-y="185,4"/><circle id="sh-pt-C1" cx="128.84" cy="114.77" r="0.5" class="pt jt" data-k="C1" data-x="128,8" data-y="155,2"/><circle id="sh-pt-E1" cx="31.97" cy="119.03" r="0.5" class="pt jt" data-k="E1" data-x="32,0" data-y="151,0"/><circle id="sh-pt-F1" cx="90" cy="217.49" r="0.5" class="pt jt" data-k="F1" data-x="90,0" data-y="52,5"/></g><g class="posg" data-pos="3"><line x1="305.13" y1="81.04" x2="160.26" y2="96.02" class="ln"/><line x1="90" y1="14" x2="160.26" y2="96.02" class="ln"/><line x1="90" y1="14" x2="70.36" y2="132.38" class="ln"/><line x1="70.36" y1="132.38" x2="90" y2="244.97" class="ln"/><line x1="290" y1="99.71" x2="305.13" y2="81.04" class="ln"/><circle id="sh-pt-B3" cx="305.13" cy="81.04" r="0.5" class="pt jt" data-k="B3" data-x="305,1" data-y="189,0"/><circle id="sh-pt-C3" cx="160.26" cy="96.02" r="0.5" class="pt jt" data-k="C3" data-x="160,3" data-y="174,0"/><circle id="sh-pt-E3" cx="70.36" cy="132.38" r="0.5" class="pt jt" data-k="E3" data-x="70,4" data-y="137,6"/><circle id="sh-pt-F3" cx="90" cy="244.97" r="0.5" class="pt jt" data-k="F3" data-x="90,0" data-y="25,0"/></g><g class="posg" data-pos="4"><line x1="313.91" y1="97.21" x2="168.54" y2="88.13" class="ln"/><line x1="90" y1="14" x2="168.54" y2="88.13" class="ln"/><line x1="90" y1="14" x2="83" y2="133.8" class="ln"/><line x1="83" y1="133.8" x2="90" y2="247.87" class="ln"/><line x1="290" y1="99.71" x2="313.91" y2="97.21" class="ln"/><circle id="sh-pt-B4" cx="313.91" cy="97.21" r="0.5" class="pt jt" data-k="B4" data-x="313,9" data-y="172,8"/><circle id="sh-pt-C4" cx="168.54" cy="88.13" r="0.5" class="pt jt" data-k="C4" data-x="168,5" data-y="181,9"/><circle id="sh-pt-E4" cx="83" cy="133.8" r="0.5" class="pt jt" data-k="E4" data-x="83,0" data-y="136,2"/><circle id="sh-pt-F4" cx="90" cy="247.87" r="0.5" class="pt jt" data-k="F4" data-x="90,0" data-y="22,1"/></g><g class="posg" data-pos="5"><line x1="308.67" y1="114.85" x2="164.85" y2="91.85" class="ln"/><line x1="90" y1="14" x2="164.85" y2="91.85" class="ln"/><line x1="90" y1="14" x2="77.19" y2="133.31" class="ln"/><line x1="77.19" y1="133.31" x2="90" y2="246.88" class="ln"/><line x1="290" y1="99.71" x2="308.67" y2="114.85" class="ln"/><circle id="sh-pt-B5" cx="308.67" cy="114.85" r="0.5" class="pt jt" data-k="B5" data-x="308,7" data-y="155,2"/><circle id="sh-pt-C5" cx="164.85" cy="91.85" r="0.5" class="pt jt" data-k="C5" data-x="164,9" data-y="178,1"/><circle id="sh-pt-E5" cx="77.19" cy="133.31" r="0.5" class="pt jt" data-k="E5" data-x="77,2" data-y="136,7"/><circle id="sh-pt-F5" cx="90" cy="246.88" r="0.5" class="pt jt" data-k="F5" data-x="90,0" data-y="23,1"/></g><g class="posg" data-pos="6"><line x1="292.5" y1="123.62" x2="148.04" y2="105.08" class="ln"/><line x1="90" y1="14" x2="148.04" y2="105.08" class="ln"/><line x1="90" y1="14" x2="53.93" y2="128.45" class="ln"/><line x1="53.93" y1="128.45" x2="90" y2="236.89" class="ln"/><line x1="290" y1="99.71" x2="292.5" y2="123.62" class="ln"/><circle id="sh-pt-B6" cx="292.5" cy="123.62" r="0.5" class="pt jt" data-k="B6" data-x="292,5" data-y="146,4"/><circle id="sh-pt-C6" cx="148.04" cy="105.08" r="0.5" class="pt jt" data-k="C6" data-x="148,0" data-y="164,9"/><circle id="sh-pt-E6" cx="53.93" cy="128.45" r="0.5" class="pt jt" data-k="E6" data-x="53,9" data-y="141,5"/><circle id="sh-pt-F6" cx="90" cy="236.89" r="0.5" class="pt jt" data-k="F6" data-x="90,0" data-y="33,1"/></g><g class="posg" data-pos="7"><line x1="274.87" y1="118.39" x2="129.27" y2="114.61" class="ln"/><line x1="90" y1="14" x2="129.27" y2="114.61" class="ln"/><line x1="90" y1="14" x2="32.41" y2="119.28" class="ln"/><line x1="32.41" y1="119.28" x2="90" y2="217.99" class="ln"/><line x1="290" y1="99.71" x2="274.87" y2="118.39" class="ln"/><circle id="sh-pt-B7" cx="274.87" cy="118.39" r="0.5" class="pt jt" data-k="B7" data-x="274,9" data-y="151,6"/><circle id="sh-pt-C7" cx="129.27" cy="114.61" r="0.5" class="pt jt" data-k="C7" data-x="129,3" data-y="155,4"/><circle id="sh-pt-E7" cx="32.41" cy="119.28" r="0.5" class="pt jt" data-k="E7" data-x="32,4" data-y="150,7"/><circle id="sh-pt-F7" cx="90" cy="217.99" r="0.5" class="pt jt" data-k="F7" data-x="90,0" data-y="52,0"/></g></g><g data-layer="diag"><line x1="120" y1="207.95" x2="120" y2="253.95" class="thick" marker-end="url(#sh-ar-k)"/><line x1="120" y1="207.95" x2="166" y2="207.95" class="thick" marker-end="url(#sh-ar-k)"/><line x1="159" y1="207.95" x2="159" y2="247.95" class="con2"/><line x1="120" y1="247.95" x2="159" y2="247.95" class="con2"/><path d="M120 207.95 L120 208.62 L120 209.28 L120 209.95 L120 210.62 L120 211.28 L120 211.95 L120 212.62 L120 213.28 L120 213.95 L120 214.62 L120 215.28 L120 215.95 L120 216.62 L120 217.28 L120 217.95 L120 218.62 L120.02 219.28 L120.63 219.95 L121.98 220.62 L123.9 221.28 L126.24 221.95 L128.84 222.62 L131.52 223.28 L134.13 223.95 L136.5 224.62 L138.47 225.28 L139.99 225.95 L141.41 226.62 L142.78 227.28 L144.09 227.95 L145.35 228.62 L146.55 229.28 L147.7 229.95 L148.78 230.62 L149.81 231.28 L150.78 231.95 L151.69 232.62 L152.54 233.28 L153.38 233.95 L154.23 234.62 L155.07 235.28 L155.87 235.95 L156.61 236.62 L157.27 237.28 L157.83 237.95 L158.26 238.62 L158.54 239.28 L158.69 239.95 L158.81 240.62 L158.9 241.28 L158.97 241.95 L159 242.62 L158.91 243.28 L158.61 243.95 L158.16 244.62 L157.64 245.28 L157.09 245.95 L156.35 246.62 L155.52 247.28 L154.71 247.95" class="curve"/><line x1="94" y1="207.95" x2="120" y2="207.95" class="proj"/><line x1="94" y1="217.49" x2="120" y2="217.49" class="proj"/><line x1="94" y1="234.48" x2="154.07" y2="234.48" class="proj"/><circle id="sh-pt-Fre2" cx="154.07" cy="234.48" r="0.55" class="pt jt" data-k="F_re, դիրք 2" data-x="154,1" data-y="35,5"/><line x1="94" y1="244.97" x2="157.89" y2="244.97" class="proj"/><circle id="sh-pt-Fre3" cx="157.89" cy="244.97" r="0.55" class="pt jt" data-k="F_re, դիրք 3" data-x="157,9" data-y="25,0"/><line x1="94" y1="247.87" x2="154.8" y2="247.87" class="proj"/><circle id="sh-pt-Fre4" cx="154.8" cy="247.87" r="0.55" class="pt jt" data-k="F_re, դիրք 4" data-x="154,8" data-y="22,1"/><line x1="94" y1="246.88" x2="120" y2="246.88" class="proj"/><line x1="94" y1="236.89" x2="120" y2="236.89" class="proj"/><line x1="94" y1="217.99" x2="120" y2="217.99" class="proj"/><text x="168.5" y="207.75" class="lbl" text-anchor="start" dominant-baseline="central">F<tspan class="sub" dy="0.9">re</tspan></text><text x="116.6" y="254.45" class="lbl" text-anchor="end" dominant-baseline="central">S<tspan class="sub" dy="0.9">F</tspan></text><text x="159" y="205.35" class="lbl xs" text-anchor="middle" dominant-baseline="central">7800 Ն</text><text x="141.5" y="265" class="lbl sm" text-anchor="middle" dominant-baseline="central">μ<tspan class="sub" dy="0.9">F</tspan><tspan dy="-0.9"> = 200 Ն/մմ</tspan></text></g><g data-layer="work"><g class="posg" data-pos="2"><line x1="290" y1="99.71" x2="287.5" y2="75.81" class="wk"/><line x1="287.5" y1="75.81" x2="145.19" y2="106.83" class="wk"/><line x1="90" y1="14" x2="145.19" y2="106.83" class="wk"/><line x1="90" y1="14" x2="50.4" y2="127.28" class="wk"/><line x1="50.4" y1="127.28" x2="90" y2="234.48" class="wk"/><rect x="86.5" y="228.98" width="7" height="11" class="slider"/><line x1="86.5" y1="198.95" x2="86.5" y2="256.95" class="thick"/><line x1="86.5" y1="256.95" x2="84.3" y2="258.49" class="hatch"/><line x1="86.5" y1="255.35" x2="84.3" y2="256.89" class="hatch"/><line x1="86.5" y1="253.75" x2="84.3" y2="255.29" class="hatch"/><line x1="86.5" y1="252.15" x2="84.3" y2="253.69" class="hatch"/><line x1="86.5" y1="250.55" x2="84.3" y2="252.09" class="hatch"/><line x1="86.5" y1="248.95" x2="84.3" y2="250.49" class="hatch"/><line x1="86.5" y1="247.35" x2="84.3" y2="248.89" class="hatch"/><line x1="86.5" y1="245.75" x2="84.3" y2="247.29" class="hatch"/><line x1="86.5" y1="244.15" x2="84.3" y2="245.69" class="hatch"/><line x1="86.5" y1="242.55" x2="84.3" y2="244.09" class="hatch"/><line x1="86.5" y1="240.95" x2="84.3" y2="242.49" class="hatch"/><line x1="86.5" y1="239.35" x2="84.3" y2="240.89" class="hatch"/><line x1="86.5" y1="237.75" x2="84.3" y2="239.29" class="hatch"/><line x1="86.5" y1="236.15" x2="84.3" y2="237.69" class="hatch"/><line x1="86.5" y1="234.55" x2="84.3" y2="236.09" class="hatch"/><line x1="86.5" y1="232.95" x2="84.3" y2="234.49" class="hatch"/><line x1="86.5" y1="231.35" x2="84.3" y2="232.89" class="hatch"/><line x1="86.5" y1="229.75" x2="84.3" y2="231.29" class="hatch"/><line x1="86.5" y1="228.15" x2="84.3" y2="229.69" class="hatch"/><line x1="86.5" y1="226.55" x2="84.3" y2="228.09" class="hatch"/><line x1="86.5" y1="224.95" x2="84.3" y2="226.49" class="hatch"/><line x1="86.5" y1="223.35" x2="84.3" y2="224.89" class="hatch"/><line x1="86.5" y1="221.75" x2="84.3" y2="223.29" class="hatch"/><line x1="86.5" y1="220.15" x2="84.3" y2="221.69" class="hatch"/><line x1="86.5" y1="218.55" x2="84.3" y2="220.09" class="hatch"/><line x1="86.5" y1="216.95" x2="84.3" y2="218.49" class="hatch"/><line x1="86.5" y1="215.35" x2="84.3" y2="216.89" class="hatch"/><line x1="86.5" y1="213.75" x2="84.3" y2="215.29" class="hatch"/><line x1="86.5" y1="212.15" x2="84.3" y2="213.69" class="hatch"/><line x1="86.5" y1="210.55" x2="84.3" y2="212.09" class="hatch"/><line x1="86.5" y1="208.95" x2="84.3" y2="210.49" class="hatch"/><line x1="86.5" y1="207.35" x2="84.3" y2="208.89" class="hatch"/><line x1="86.5" y1="205.75" x2="84.3" y2="207.29" class="hatch"/><line x1="86.5" y1="204.15" x2="84.3" y2="205.69" class="hatch"/><line x1="86.5" y1="202.55" x2="84.3" y2="204.09" class="hatch"/><line x1="86.5" y1="200.95" x2="84.3" y2="202.49" class="hatch"/><line x1="86.5" y1="199.35" x2="84.3" y2="200.89" class="hatch"/><circle id="sh-pt-B2" cx="287.5" cy="75.81" r="1.0" class="pt jt big" data-k="B2" data-x="287,5" data-y="194,2"/><circle id="sh-pt-C2" cx="145.19" cy="106.83" r="1.0" class="pt jt big" data-k="C2" data-x="145,2" data-y="163,2"/><circle id="sh-pt-E2" cx="50.4" cy="127.28" r="1.0" class="pt jt big" data-k="E2" data-x="50,4" data-y="142,7"/><circle id="sh-pt-F2" cx="90" cy="234.48" r="1.0" class="pt jt big" data-k="F2" data-x="90,0" data-y="35,5"/><circle id="sh-pt-S2" cx="216.34" cy="91.32" r="0.7" class="pt jt s2" data-k="S₂ (դիրք 2)" data-x="216,3" data-y="178,7"/></g><path d="M70.2 70.64 L71.23 70.99 L72.27 71.32 L73.32 71.63 L74.37 71.93 L75.42 72.2 L76.48 72.46 L77.55 72.69 L78.62 72.91 L79.69 73.11 L80.77 73.29 L81.85 73.44 L82.93 73.58 L84.01 73.7 L85.1 73.8 L86.19 73.88 L87.28 73.94 L88.37 73.98 L89.46 74 L90.55 74 L91.64 73.98 L92.73 73.94 L93.82 73.88 L94.91 73.8 L95.99 73.7 L97.08 73.58 L98.16 73.44 L99.24 73.28 L100.31 73.11 L101.39 72.91 L102.46 72.69 L103.52 72.46 L104.58 72.2 L105.64 71.93 L106.69 71.63 L107.73 71.32 L108.77 70.99 L109.8 70.64 L110.83 70.27 L111.85 69.88 L112.86 69.47 L113.87 69.05 L114.86 68.61 L115.85 68.14 L116.83 67.67 L117.8 67.17 L118.77 66.65 L119.72 66.12 L120.66 65.57" class="mark"/><text x="92.3" y="80.5" class="lbl sm" text-anchor="start" dominant-baseline="central">α=50°</text></g><g data-layer="base"><path d="M90 14 L86.8 8 L93.2 8 Z" class="sup"/><line x1="84.5" y1="8" x2="95.5" y2="8" class="thick"/><line x1="84.5" y1="8" x2="82.96" y2="5.8" class="hatch"/><line x1="86.1" y1="8" x2="84.56" y2="5.8" class="hatch"/><line x1="87.7" y1="8" x2="86.16" y2="5.8" class="hatch"/><line x1="89.3" y1="8" x2="87.76" y2="5.8" class="hatch"/><line x1="90.9" y1="8" x2="89.36" y2="5.8" class="hatch"/><line x1="92.5" y1="8" x2="90.96" y2="5.8" class="hatch"/><line x1="94.1" y1="8" x2="92.56" y2="5.8" class="hatch"/><path d="M290 99.71 L286.8 105.71 L293.2 105.71 Z" class="sup"/><line x1="284.5" y1="105.71" x2="295.5" y2="105.71" class="thick"/><line x1="284.5" y1="105.71" x2="282.96" y2="107.91" class="hatch"/><line x1="286.1" y1="105.71" x2="284.56" y2="107.91" class="hatch"/><line x1="287.7" y1="105.71" x2="286.16" y2="107.91" class="hatch"/><line x1="289.3" y1="105.71" x2="287.76" y2="107.91" class="hatch"/><line x1="290.9" y1="105.71" x2="289.36" y2="107.91" class="hatch"/><line x1="292.5" y1="105.71" x2="290.96" y2="107.91" class="hatch"/><line x1="294.1" y1="105.71" x2="292.56" y2="107.91" class="hatch"/><circle id="sh-pt-D" cx="90" cy="14" r="1.2" class="pt jt big" data-k="D" data-x="90,0" data-y="256,0"/><circle id="sh-pt-A" cx="290" cy="99.71" r="1.2" class="pt jt big" data-k="A" data-x="290,0" data-y="170,3"/></g><g data-layer="dims"><line x1="290" y1="125.75" x2="290" y2="140" class="ext"/><line x1="90.1" y1="137" x2="290" y2="137" class="dim" marker-end="url(#sh-ar-k)"/><line x1="290" y1="137" x2="90.1" y2="137" class="dim" marker-end="url(#sh-ar-k)"/><text x="190" y="134.6" class="lbl sm" text-anchor="middle" dominant-baseline="central">L₁*=200</text><line x1="96.5" y1="14" x2="331" y2="14" class="ext"/><line x1="297" y1="99.71" x2="331" y2="99.71" class="ext"/><line x1="328" y1="14" x2="328" y2="99.71" class="dim" marker-end="url(#sh-ar-k)"/><line x1="328" y1="99.71" x2="328" y2="14" class="dim" marker-end="url(#sh-ar-k)"/><text x="325.4" y="56.86" class="lbl sm" text-anchor="middle" dominant-baseline="central" transform="rotate(-90 325.4 56.86)">L₂*=85,7</text><line x1="86" y1="207.95" x2="69" y2="207.95" class="ext"/><line x1="86" y1="247.95" x2="69" y2="247.95" class="ext"/><line x1="72" y1="207.95" x2="72" y2="247.95" class="dim" marker-end="url(#sh-ar-k)"/><line x1="72" y1="247.95" x2="72" y2="207.95" class="dim" marker-end="url(#sh-ar-k)"/><text x="69.4" y="227.95" class="lbl sm" text-anchor="middle" dominant-baseline="central" transform="rotate(-90 69.4 227.95)">H<tspan class="sub" dy="0.9">F</tspan><tspan dy="-0.9">*=40,0</tspan></text><text x="200" y="4.8" class="lbl ttl" text-anchor="middle" dominant-baseline="central">Մեխանիզմի դիրքերի պլանը</text><text x="200" y="9.4" class="lbl" text-anchor="middle" dominant-baseline="central">μ<tspan class="sub" dy="0.9">l</tspan><tspan dy="-0.9"> = 0,00175 մ/մմ</tspan></text></g><g data-layer="labels"><text x="262.71" y="102.57" class="lbl num" text-anchor="middle" dominant-baseline="central">0</text><text x="268.69" y="82.44" class="lbl num" text-anchor="middle" dominant-baseline="central">1</text><text x="287.14" y="72.43" class="lbl num" text-anchor="middle" dominant-baseline="central">2</text><text x="307.27" y="78.4" class="lbl num" text-anchor="middle" dominant-baseline="central">3</text><text x="317.29" y="96.86" class="lbl num" text-anchor="middle" dominant-baseline="central">4</text><text x="311.31" y="116.99" class="lbl num" text-anchor="middle" dominant-baseline="central">5</text><text x="292.86" y="127" class="lbl num" text-anchor="middle" dominant-baseline="central">6</text><text x="272.73" y="121.03" class="lbl num" text-anchor="middle" dominant-baseline="central">7</text><text x="282.9" y="73.01" class="lbl" text-anchor="middle" dominant-baseline="central">B</text><text x="122.51" y="121.6" class="lbl num" text-anchor="middle" dominant-baseline="central">0</text><text x="130.64" y="118.79" class="lbl num" text-anchor="middle" dominant-baseline="central">1,7</text><text x="148.93" y="109.71" class="lbl num" text-anchor="middle" dominant-baseline="central">2,6</text><text x="163.12" y="99.37" class="lbl num" text-anchor="middle" dominant-baseline="central">3</text><text x="167.9" y="95.03" class="lbl num" text-anchor="middle" dominant-baseline="central">5</text><text x="171.74" y="91.15" class="lbl num" text-anchor="middle" dominant-baseline="central">4</text><text x="140.59" y="108.23" class="lbl" text-anchor="middle" dominant-baseline="central">C</text><text x="22.12" y="117.77" class="lbl num" text-anchor="middle" dominant-baseline="central">0</text><text x="30.26" y="122.66" class="lbl num" text-anchor="middle" dominant-baseline="central">1,7</text><text x="69.71" y="136.33" class="lbl num" text-anchor="middle" dominant-baseline="central">3</text><text x="46.2" y="130.68" class="lbl num" text-anchor="middle" dominant-baseline="central">2,6</text><text x="73.29" y="128.18" class="lbl num" text-anchor="middle" dominant-baseline="central">5</text><text x="87.58" y="129.37" class="lbl num" text-anchor="middle" dominant-baseline="central">4</text><text x="46.6" y="124.68" class="lbl" text-anchor="middle" dominant-baseline="central">E</text><text x="217.14" y="87.72" class="lbl" text-anchor="middle" dominant-baseline="central">S₂</text><text x="83" y="232.68" class="lbl" text-anchor="middle" dominant-baseline="central">F</text><text x="95.2" y="206.35" class="lbl num" text-anchor="start" dominant-baseline="central">0</text><text x="95.2" y="215.94" class="lbl num" text-anchor="start" dominant-baseline="central">1,7</text><text x="95.2" y="232.88" class="lbl num" text-anchor="start" dominant-baseline="central">2</text><text x="95.2" y="238.49" class="lbl num" text-anchor="start" dominant-baseline="central">6</text><text x="95.2" y="243.37" class="lbl num" text-anchor="start" dominant-baseline="central">3</text><text x="95.2" y="250.27" class="lbl num" text-anchor="start" dominant-baseline="central">4,5</text></g><g data-layer="xlabels"><text x="85.8" y="11.8" class="lbl big" text-anchor="middle" dominant-baseline="central">D</text><text x="295.8" y="102.91" class="lbl big" text-anchor="middle" dominant-baseline="central">A</text><text x="257.6" y="108.38" class="lbl" text-anchor="middle" dominant-baseline="central">B₀</text><text x="321.47" y="109.75" class="lbl" text-anchor="middle" dominant-baseline="central">B₀′</text><text x="116.04" y="116.78" class="lbl" text-anchor="middle" dominant-baseline="central">C₀</text><text x="173.59" y="85.26" class="lbl" text-anchor="middle" dominant-baseline="central">C₀′</text><text x="20.91" y="110.83" class="lbl" text-anchor="middle" dominant-baseline="central">E₀</text><text x="94" y="132.94" class="lbl" text-anchor="start" dominant-baseline="central">E₀′</text><line x1="93.4" y1="133.34" x2="84.72" y2="133.84" class="ext"/><text x="64.5" y="205.95" class="lbl" text-anchor="middle" dominant-baseline="central">F₀</text><text x="64.5" y="250.15" class="lbl" text-anchor="middle" dominant-baseline="central">F₀′</text></g><g data-layer="aplan"><g class="plan ap" data-plan="a2"><line x1="257.28" y1="250.55" x2="241.23" y2="166.34" class="atri"/><line x1="250" y1="181" x2="257.28" y2="250.55" class="acc" marker-end="url(#sh-ar-a)"/><line x1="257.28" y1="250.55" x2="259.48" y2="250.07" class="accr"/><line x1="259.48" y1="250.07" x2="241.23" y2="166.34" class="accr" marker-end="url(#sh-ar-a)"/><line x1="250" y1="181" x2="241.27" y2="166.32" class="accr" marker-end="url(#sh-ar-a)"/><line x1="241.27" y1="166.32" x2="241.23" y2="166.34" class="accr"/><line x1="250" y1="181" x2="241.23" y2="166.34" class="acc" marker-end="url(#sh-ar-a)"/><line x1="250" y1="181" x2="256.21" y2="163.06" class="acc" marker-end="url(#sh-ar-a)"/><line x1="241.23" y1="166.34" x2="256.21" y2="163.06" class="atri"/><line x1="256.21" y1="163.06" x2="249.22" y2="144.13" class="accr" marker-end="url(#sh-ar-a)"/><line x1="249.22" y1="144.13" x2="250" y2="143.84" class="accr"/><line x1="250" y1="181" x2="250" y2="143.84" class="acc" marker-end="url(#sh-ar-a)"/><line x1="250" y1="181" x2="249.25" y2="208.45" class="accs" marker-end="url(#sh-ar-a)"/><circle id="sh-pt-a2b" cx="257.28" cy="250.55" r="0.55" class="pt jt ajt" data-k="b (արագ. պլան 2)" data-x="257,3" data-y="19,5"/><text x="260.28" y="252.55" class="lbl al" text-anchor="start" dominant-baseline="central">b</text><circle id="sh-pt-a2n2" cx="259.48" cy="250.07" r="0.55" class="pt jt ajt" data-k="n₂ (արագ. պլան 2)" data-x="259,5" data-y="19,9"/><text x="262.68" y="248.67" class="lbl al" text-anchor="start" dominant-baseline="central">n₂</text><circle id="sh-pt-a2c" cx="241.23" cy="166.34" r="0.55" class="pt jt ajt" data-k="c (արագ. պլան 2)" data-x="241,2" data-y="103,7"/><text x="238.23" y="167.94" class="lbl al" text-anchor="end" dominant-baseline="central">c</text><circle id="sh-pt-a2n3" cx="241.27" cy="166.32" r="0.55" class="pt jt ajt" data-k="n₃ (արագ. պլան 2)" data-x="241,3" data-y="103,7"/><text x="237.97" y="164.12" class="lbl al" text-anchor="end" dominant-baseline="central">n₃</text><circle id="sh-pt-a2e" cx="256.21" cy="163.06" r="0.55" class="pt jt ajt" data-k="e (արագ. պլան 2)" data-x="256,2" data-y="106,9"/><text x="259.61" y="163.66" class="lbl al" text-anchor="start" dominant-baseline="central">e</text><circle id="sh-pt-a2n4" cx="249.22" cy="144.13" r="0.55" class="pt jt ajt" data-k="n₄ (արագ. պլան 2)" data-x="249,2" data-y="125,9"/><text x="245.02" y="142.93" class="lbl al" text-anchor="end" dominant-baseline="central">n₄</text><circle id="sh-pt-a2f" cx="250" cy="143.84" r="0.55" class="pt jt ajt" data-k="f (արագ. պլան 2)" data-x="250,0" data-y="126,2"/><text x="253" y="141.44" class="lbl al" text-anchor="start" dominant-baseline="central">f</text><circle id="sh-pt-a2s2" cx="249.25" cy="208.45" r="0.55" class="pt jt ajt" data-k="s₂ (արագ. պլան 2)" data-x="249,3" data-y="61,6"/><text x="245.85" y="208.85" class="lbl al" text-anchor="end" dominant-baseline="central">s₂</text><circle id="sh-pt-a2pi" cx="250" cy="181" r="0.7" class="pt jt ajt" data-k="π (a, d) (արագ. պլան 2)" data-x="250,0" data-y="89,0"/><text x="254.4" y="184" class="lbl al" text-anchor="start" dominant-baseline="central">π (a, d)</text><text x="257.52" y="229.14" class="lbl dir" text-anchor="middle" dominant-baseline="central" transform="rotate(77.7 257.52 229.14)">⊥BC</text><text x="249.22" y="198.39" class="lbl dir" text-anchor="middle" dominant-baseline="central" transform="rotate(-95.98 249.22 198.39)">B→A</text><text x="268" y="204" class="lbl al ttl2" text-anchor="start" dominant-baseline="central">Արագացումների պլան</text><text x="268" y="209" class="lbl al sm" text-anchor="start" dominant-baseline="central">դիրք 2 (հաստ դիրք)</text><text x="268" y="214.6" class="lbl al sm" text-anchor="start" dominant-baseline="central">μ<tspan class="sub" dy="0.9">a</tspan><tspan dy="-0.9"> = 0,2909 (մ/վ²)/մմ</tspan></text><text x="268" y="219.4" class="lbl al sm" text-anchor="start" dominant-baseline="central">πb = 70 մմ</text></g></g><g data-layer="title"><rect x="277" y="251" width="100" height="16" class="tbox"/><line x1="337" y1="251" x2="337" y2="267" class="tbl"/><line x1="277" y1="259" x2="377" y2="259" class="tbl"/><text x="307" y="255.2" class="lbl xs" text-anchor="middle" dominant-baseline="central">Առաջադրանք N2. Կինեմատիկա</text><text x="307" y="263.2" class="lbl xs" text-anchor="middle" dominant-baseline="central">Դիրքեր, F<tspan class="sub" dy="0.6">re</tspan><tspan dy="-0.6">, արագացումներ</tspan></text><text x="357" y="255.2" class="lbl sm" text-anchor="middle" dominant-baseline="central">Տարբերակ 1</text><text x="357" y="263.2" class="lbl sm" text-anchor="middle" dominant-baseline="central">Թերթ 1 / 2</text></g></svg>